<svg xmlns="http://www.w3.org/2000/svg" xmlns:xlink="http://www.w3.org/1999/xlink" width="1080" zoomAndPan="magnify" viewBox="0 0 810 1012.49997" height="1350" preserveAspectRatio="xMidYMid meet" version="1.0"><defs><clipPath id="9f6507f22f"><path d="M 21.925781 21.925781 L 720.074219 21.925781 L 720.074219 720.074219 L 21.925781 720.074219 Z M 21.925781 21.925781 " clip-rule="nonzero"/></clipPath><clipPath id="f18e05d975"><path d="M 371 21.925781 C 178.210938 21.925781 21.925781 178.210938 21.925781 371 C 21.925781 563.789062 178.210938 720.074219 371 720.074219 C 563.789062 720.074219 720.074219 563.789062 720.074219 371 C 720.074219 178.210938 563.789062 21.925781 371 21.925781 Z M 371 21.925781 " clip-rule="nonzero"/></clipPath><clipPath id="fbc5a11e33"><path d="M 0.925781 0.925781 L 699.074219 0.925781 L 699.074219 699.074219 L 0.925781 699.074219 Z M 0.925781 0.925781 " clip-rule="nonzero"/></clipPath><clipPath id="9e9781b79b"><path d="M 350 0.925781 C 157.210938 0.925781 0.925781 157.210938 0.925781 350 C 0.925781 542.789062 157.210938 699.074219 350 699.074219 C 542.789062 699.074219 699.074219 542.789062 699.074219 350 C 699.074219 157.210938 542.789062 0.925781 350 0.925781 Z M 350 0.925781 " clip-rule="nonzero"/></clipPath><clipPath id="626934c14e"><rect x="0" width="700" y="0" height="700"/></clipPath><clipPath id="43b9fddb74"><path d="M 21.925781 21.925781 L 720.050781 21.925781 L 720.050781 720.050781 L 21.925781 720.050781 Z M 21.925781 21.925781 " clip-rule="nonzero"/></clipPath><clipPath id="10708b2a79"><path d="M 370.988281 21.925781 C 178.207031 21.925781 21.925781 178.207031 21.925781 370.988281 C 21.925781 563.769531 178.207031 720.050781 370.988281 720.050781 C 563.769531 720.050781 720.050781 563.769531 720.050781 370.988281 C 720.050781 178.207031 563.769531 21.925781 370.988281 21.925781 Z M 370.988281 21.925781 " clip-rule="nonzero"/></clipPath><clipPath id="bd25a471b3"><path d="M 159.601562 122 L 583 122 L 583 336 L 159.601562 336 Z M 159.601562 122 " clip-rule="nonzero"/></clipPath><clipPath id="770da875a8"><rect x="0" width="742" y="0" height="743"/></clipPath></defs><g transform="matrix(1, 0, 0, 1, 34, 135)"><g clip-path="url(#770da875a8)"><g clip-path="url(#9f6507f22f)"><g clip-path="url(#f18e05d975)"><g transform="matrix(1, 0, 0, 1, 21, 21)"><g clip-path="url(#626934c14e)"><g clip-path="url(#fbc5a11e33)"><g clip-path="url(#9e9781b79b)"><path fill="#8c52ff" d="M 0.925781 0.925781 L 699.074219 0.925781 L 699.074219 699.074219 L 0.925781 699.074219 Z M 0.925781 0.925781 " fill-opacity="1" fill-rule="nonzero"/></g></g></g></g></g></g><g clip-path="url(#43b9fddb74)"><g clip-path="url(#10708b2a79)"><path stroke-linecap="butt" transform="matrix(7.086443, 0, 0, 7.086443, 21.924875, 21.924975)" fill="none" stroke-linejoin="miter" d="M 49.257913 0.000113707 C 22.053681 0.000113707 0.000127902 22.053667 0.000127902 49.257899 C 0.000127902 76.462132 22.053681 98.515685 49.257913 98.515685 C 76.462146 98.515685 98.515699 76.462132 98.515699 49.257899 C 98.515699 22.053667 76.462146 0.000113707 49.257913 0.000113707 Z M 49.257913 0.000113707 " stroke="#ff914d" stroke-width="1.269404" stroke-opacity="1" stroke-miterlimit="4"/></g></g><path fill="#ffffff" d="M 222.859375 257.777344 C 219.90625 257.777344 217.492188 255.390625 217.492188 252.441406 L 217.492188 162.480469 C 217.492188 156.996094 222.53125 152.523438 228.730469 152.523438 L 271.027344 152.523438 C 277.199219 152.523438 282.238281 156.996094 282.238281 162.480469 L 282.238281 205.9375 C 282.238281 208.890625 279.851562 211.273438 276.902344 211.273438 C 273.949219 211.273438 271.566406 208.890625 271.566406 205.9375 L 271.566406 163.253906 C 271.417969 163.222656 271.238281 163.195312 271.027344 163.195312 L 228.730469 163.195312 C 228.523438 163.195312 228.3125 163.222656 228.195312 163.253906 L 228.195312 252.441406 C 228.195312 255.390625 225.808594 257.777344 222.859375 257.777344 " fill-opacity="1" fill-rule="nonzero"/><path fill="#ffffff" d="M 177.253906 547.480469 L 564.699219 547.480469 C 564.789062 547.273438 564.90625 546.914062 564.90625 546.4375 L 564.90625 522.144531 C 564.90625 521.636719 564.789062 521.308594 564.699219 521.070312 L 177.253906 521.070312 C 177.164062 521.308594 177.042969 521.636719 177.042969 522.144531 L 177.042969 546.4375 C 177.042969 546.914062 177.164062 547.273438 177.253906 547.480469 Z M 565.355469 558.183594 L 176.597656 558.183594 C 170.875 558.183594 166.371094 553.023438 166.371094 546.4375 L 166.371094 522.144531 C 166.371094 515.554688 170.875 510.398438 176.597656 510.398438 L 565.355469 510.398438 C 571.078125 510.398438 575.578125 515.554688 575.578125 522.144531 L 575.578125 546.4375 C 575.578125 553.023438 571.078125 558.183594 565.355469 558.183594 " fill-opacity="1" fill-rule="nonzero"/><path fill="#ffffff" d="M 205.09375 521.101562 C 202.140625 521.101562 199.757812 518.714844 199.757812 515.765625 L 199.757812 316.824219 C 199.757812 313.875 202.140625 311.460938 205.09375 311.460938 C 208.042969 311.460938 210.457031 313.875 210.457031 316.824219 L 210.457031 515.765625 C 210.457031 518.714844 208.042969 521.101562 205.09375 521.101562 " fill-opacity="1" fill-rule="nonzero"/><path fill="#ffffff" d="M 536.859375 521.039062 C 533.90625 521.039062 531.492188 518.65625 531.492188 515.707031 L 531.523438 316.824219 C 531.523438 313.875 533.90625 311.460938 536.859375 311.460938 C 539.808594 311.460938 542.195312 313.875 542.195312 316.824219 L 542.195312 515.707031 C 542.195312 518.65625 539.808594 521.039062 536.859375 521.039062 " fill-opacity="1" fill-rule="nonzero"/><g clip-path="url(#bd25a471b3)"><path fill="#ffffff" d="M 370.976562 133.148438 C 370.171875 133.148438 369.367188 133.417969 368.710938 133.984375 L 171.617188 303.5625 C 170.933594 304.15625 170.484375 304.992188 170.425781 305.914062 C 170.367188 306.839844 170.664062 307.734375 171.261719 308.449219 L 184.050781 323.292969 C 185.300781 324.753906 187.507812 324.902344 188.96875 323.652344 L 361.734375 175 C 367.011719 170.46875 374.941406 170.46875 380.214844 175 L 552.984375 323.652344 C 554.445312 324.902344 556.648438 324.726562 557.902344 323.292969 L 570.691406 308.449219 C 571.285156 307.734375 571.585938 306.839844 571.523438 305.914062 C 571.464844 304.992188 571.019531 304.15625 570.332031 303.5625 L 373.242188 133.984375 C 372.585938 133.417969 371.78125 133.148438 370.976562 133.148438 Z M 186.703125 335.1875 C 182.707031 335.1875 178.773438 333.519531 175.972656 330.269531 L 163.183594 315.425781 C 160.710938 312.5625 159.488281 308.898438 159.785156 305.140625 C 160.054688 301.355469 161.78125 297.925781 164.644531 295.453125 L 361.734375 125.875 C 367.011719 121.34375 374.941406 121.34375 380.214844 125.875 L 577.308594 295.453125 C 580.167969 297.925781 581.898438 301.355469 582.167969 305.140625 C 582.464844 308.898438 581.242188 312.5625 578.796875 315.425781 L 565.980469 330.269531 C 560.914062 336.171875 551.941406 336.828125 546.039062 331.757812 L 373.242188 183.105469 C 371.960938 181.972656 369.992188 181.972656 368.710938 183.105469 L 195.914062 331.757812 C 193.257812 334.054688 189.980469 335.1875 186.703125 335.1875 " fill-opacity="1" fill-rule="nonzero"/></g><path fill="#ffffff" d="M 266.4375 521.070312 C 263.488281 521.070312 261.101562 518.6875 261.101562 515.734375 C 261.101562 499.640625 267.78125 491.292969 273.683594 483.929688 C 279.167969 477.074219 283.90625 471.140625 283.90625 458.773438 C 283.90625 446.429688 279.167969 440.5 273.683594 433.644531 C 267.78125 426.28125 261.101562 417.933594 261.101562 401.839844 L 261.101562 366.335938 C 261.101562 363.386719 263.488281 361 266.4375 361 C 269.390625 361 271.804688 363.386719 271.804688 366.335938 L 271.804688 401.839844 C 271.804688 414.207031 276.542969 420.109375 282.027344 426.964844 C 287.898438 434.328125 294.578125 442.675781 294.578125 458.773438 C 294.578125 474.898438 287.898438 483.246094 282.027344 490.605469 C 276.542969 497.460938 271.804688 503.363281 271.804688 515.734375 C 271.804688 518.6875 269.390625 521.070312 266.4375 521.070312 " fill-opacity="1" fill-rule="nonzero"/><path fill="#ffffff" d="M 236.898438 416.503906 C 235.886719 416.503906 234.871094 416.234375 233.949219 415.640625 C 231.503906 414 230.816406 410.691406 232.425781 408.246094 L 261.996094 363.414062 C 262.980469 361.894531 264.648438 361 266.4375 361 C 268.257812 361 269.925781 361.894531 270.910156 363.414062 L 300.449219 408.246094 C 302.089844 410.691406 301.402344 414 298.929688 415.640625 C 296.484375 417.25 293.175781 416.59375 291.535156 414.121094 L 266.4375 376.054688 L 241.371094 414.121094 C 240.328125 415.667969 238.628906 416.503906 236.898438 416.503906 " fill-opacity="1" fill-rule="nonzero"/><path fill="#ffffff" d="M 370.976562 521.101562 C 368.023438 521.101562 365.640625 518.714844 365.640625 515.765625 C 365.640625 499.640625 372.316406 491.292969 378.21875 483.929688 C 383.703125 477.074219 388.441406 471.171875 388.441406 458.800781 C 388.441406 446.429688 383.703125 440.527344 378.21875 433.671875 C 372.316406 426.3125 365.640625 417.964844 365.640625 401.867188 L 365.640625 366.367188 C 365.640625 363.414062 368.023438 361.03125 370.976562 361.03125 C 373.925781 361.03125 376.3125 363.414062 376.3125 366.367188 L 376.3125 401.867188 C 376.3125 414.207031 381.050781 420.140625 386.535156 426.996094 C 392.4375 434.359375 399.113281 442.675781 399.113281 458.800781 C 399.113281 474.929688 392.4375 483.246094 386.535156 490.605469 C 381.050781 497.460938 376.3125 503.394531 376.3125 515.765625 C 376.3125 518.714844 373.925781 521.101562 370.976562 521.101562 " fill-opacity="1" fill-rule="nonzero"/><path fill="#ffffff" d="M 400.515625 416.535156 C 398.785156 416.535156 397.085938 415.699219 396.074219 414.121094 L 370.976562 376.085938 L 345.878906 414.121094 C 344.265625 416.59375 340.957031 417.277344 338.484375 415.640625 C 336.011719 414.03125 335.355469 410.722656 336.964844 408.246094 L 366.503906 363.414062 C 368.5 360.433594 373.449219 360.433594 375.445312 363.414062 L 404.988281 408.246094 C 406.597656 410.722656 405.941406 414.03125 403.464844 415.640625 C 402.570312 416.265625 401.527344 416.535156 400.515625 416.535156 " fill-opacity="1" fill-rule="nonzero"/><path fill="#ffffff" d="M 476.019531 521.101562 C 473.070312 521.101562 470.683594 518.714844 470.683594 515.765625 C 470.683594 499.640625 477.359375 491.292969 483.234375 483.929688 C 488.71875 477.074219 493.457031 471.171875 493.457031 458.800781 C 493.457031 446.429688 488.71875 440.527344 483.234375 433.671875 C 477.359375 426.3125 470.683594 417.964844 470.683594 401.867188 L 470.683594 366.367188 C 470.683594 363.414062 473.070312 361.03125 476.019531 361.03125 C 478.96875 361.03125 481.355469 363.414062 481.355469 366.367188 L 481.355469 401.867188 C 481.355469 414.207031 486.09375 420.140625 491.578125 426.996094 C 497.480469 434.359375 504.160156 442.675781 504.160156 458.800781 C 504.160156 474.929688 497.480469 483.246094 491.578125 490.605469 C 486.09375 497.460938 481.355469 503.394531 481.355469 515.765625 C 481.355469 518.714844 478.96875 521.101562 476.019531 521.101562 " fill-opacity="1" fill-rule="nonzero"/><path fill="#ffffff" d="M 446.449219 416.535156 C 445.464844 416.535156 444.421875 416.265625 443.527344 415.640625 C 441.054688 414.03125 440.367188 410.722656 442.007812 408.246094 L 471.546875 363.414062 C 472.53125 361.925781 474.230469 361.03125 476.019531 361.03125 C 477.808594 361.03125 479.476562 361.925781 480.460938 363.414062 L 510.03125 408.246094 C 511.640625 410.722656 510.953125 414.03125 508.511719 415.640625 C 506.035156 417.277344 502.726562 416.59375 501.089844 414.121094 L 476.019531 376.085938 L 450.921875 414.121094 C 449.90625 415.699219 448.179688 416.535156 446.449219 416.535156 " fill-opacity="1" fill-rule="nonzero"/></g></g></svg>